<svg width="14" height="18" viewBox="0 0 14 18" fill="none" xmlns="http://www.w3.org/2000/svg">
<g id="Group 10">
<path id="Vector" d="M2.39763 16.9902L0.81543 15.8292" stroke="white" stroke-miterlimit="10" stroke-linecap="round"/>
<path id="Vector_2" d="M5.27908 14.7006L11.9391 5.43239L10.2237 4.17599L3.22168 14.0688L4.85968 15.2856L5.27908 14.7006Z" stroke="white" stroke-miterlimit="10" stroke-linecap="round"/>
<path id="Vector_3" d="M8.63125 3.02039L10.2243 4.17599L3.22225 14.0688L1.56445 12.861L8.63125 3.02039Z" stroke="white" stroke-miterlimit="10" stroke-linecap="round"/>
<path id="Vector_4" d="M4.81307 15.2514L3.28847 14.1336L1.60547 12.9114" stroke="white" stroke-miterlimit="10" stroke-linecap="round"/>
<path id="Vector_5" d="M1.56433 12.861L0.680535 14.0922C0.556335 14.265 0.502335 14.4774 0.527535 14.688L0.837135 17.289C0.849735 17.3952 0.952335 17.4654 1.05493 17.4384L3.53893 16.7976C3.73153 16.7472 3.90073 16.632 4.01773 16.47L4.88893 15.2514" stroke="white" stroke-miterlimit="10" stroke-linecap="round"/>
<path id="Vector_6" d="M11.9399 5.4324L13.0289 3.915C14.5517 1.8432 11.1695 -0.567 9.70425 1.5246C9.70425 1.5246 9.22545 2.1924 8.58105 3.0906" stroke="white" stroke-miterlimit="10" stroke-linecap="round"/>
<path id="Vector_7" d="M11.9392 5.4324L13.0282 3.915C14.551 1.8432 11.1688 -0.567 9.70364 1.5246C9.70364 1.5246 9.40124 2.016 8.75684 2.9124L8.66504 3.0438L10.4092 4.311L11.9338 5.4288" stroke="white" stroke-miterlimit="10" stroke-linecap="round"/>
</g>
</svg>
